<svg xmlns="http://www.w3.org/2000/svg" width="16" height="16" viewBox="0 0 16 16">
    <g fill="none" fill-rule="nonzero">
        <g fill="#E01E5A">
            <path d="M3.363 10.024A1.666 1.666 0 1 1 1.697 8.36h1.666v1.665zM4.195 10.024a1.666 1.666 0 0 1 3.332 0v4.164a1.666 1.666 0 0 1-3.332 0v-4.164z"/>
        </g>
        <g fill="#36C5F0">
            <path d="M5.861 3.362a1.666 1.666 0 1 1 1.666-1.666v1.666H5.86zM5.861 4.195a1.666 1.666 0 0 1 0 3.331H1.697a1.666 1.666 0 0 1 0-3.331h4.164z"/>
        </g>
        <g fill="#2EB67D">
            <path d="M12.524 5.86a1.666 1.666 0 1 1 1.665 1.666h-1.665V5.86zM11.69 5.86a1.666 1.666 0 0 1-3.33 0V1.696a1.666 1.666 0 0 1 3.33 0V5.86z"/>
        </g>
        <g fill="#ECB22E">
            <path d="M10.025 12.523a1.666 1.666 0 1 1-1.666 1.665v-1.665h1.666zM10.025 11.69a1.666 1.666 0 0 1 0-3.331h4.164a1.666 1.666 0 0 1 0 3.331h-4.164z"/>
        </g>
    </g>
</svg>
